# xmcd
#
# Track frame offsets: 
#        150
#        17660
#        32773
#        52083
#
# Disc length: 907 seconds
#
# Revision: 0
# Processed by: cddbd v1.5.1PL0 Copyright (c) Steve Scherf et al.
# Submitted via: ExactAudioCopy v0.95a5
#
DISCID=2c038904
DTITLE=Lange Frans and Baas B - Represent
DYEAR=2004
DGENRE=R&B
TTITLE0=Represent (album versie)
TTITLE1=Represent (Beatkidz remix)
TTITLE2=Represent feat. ICE(Beatkidz remix)
TTITLE3=Represent (Soulsearchin Remix)
EXTD=
EXTT0=
EXTT1=
EXTT2=
EXTT3=
PLAYORDER=
